<svg width="42" height="42" viewBox="0 0 42 42" fill="none" xmlns="http://www.w3.org/2000/svg">
<g filter="url(#filter0_d_11_8528)">
<rect x="5" y="2" width="32" height="32" rx="16" fill="white" shape-rendering="crispEdges"/>
<path d="M23.7332 17.395C23.7332 17.5741 23.6692 17.734 23.5414 17.8747L18.7464 22.6722C18.6057 22.8129 18.4459 22.8833 18.2669 22.8833C18.0878 22.8833 17.928 22.8129 17.7874 22.6722C17.6467 22.5315 17.5764 22.3716 17.5764 22.1925V12.5975C17.5764 12.4056 17.6467 12.2456 17.7874 12.1177C17.928 11.9898 18.0878 11.9194 18.2669 11.9066C18.4459 11.8938 18.6057 11.9642 18.7464 12.1177L23.5414 16.9152C23.6692 17.0431 23.7332 17.2031 23.7332 17.395Z" fill="#1F2121"/>
</g>
<defs>
<filter id="filter0_d_11_8528" x="0" y="0" width="42" height="42" filterUnits="userSpaceOnUse" color-interpolation-filters="sRGB">
<feFlood flood-opacity="0" result="BackgroundImageFix"/>
<feColorMatrix in="SourceAlpha" type="matrix" values="0 0 0 0 0 0 0 0 0 0 0 0 0 0 0 0 0 0 127 0" result="hardAlpha"/>
<feOffset dy="3"/>
<feGaussianBlur stdDeviation="2.5"/>
<feComposite in2="hardAlpha" operator="out"/>
<feColorMatrix type="matrix" values="0 0 0 0 0 0 0 0 0 0 0 0 0 0 0 0 0 0 0.3 0"/>
<feBlend mode="normal" in2="BackgroundImageFix" result="effect1_dropShadow_11_8528"/>
<feBlend mode="normal" in="SourceGraphic" in2="effect1_dropShadow_11_8528" result="shape"/>
</filter>
</defs>
</svg>
