<svg width="17" height="16" viewBox="0 0 17 16" fill="none" xmlns="http://www.w3.org/2000/svg">
<g clip-path="url(#clip0_6_11827)">
<path d="M10.1866 6.31328L6.81328 9.68661C6.37995 9.25328 6.11328 8.65995 6.11328 7.99995C6.11328 6.67995 7.17995 5.61328 8.49995 5.61328C9.15995 5.61328 9.75328 5.87995 10.1866 6.31328Z" stroke="#171717" stroke-linecap="round" stroke-linejoin="round"/>
<path d="M12.38 3.84828C11.2134 2.96828 9.88002 2.48828 8.50002 2.48828C6.14668 2.48828 3.95335 3.87495 2.42668 6.27495C1.82668 7.21495 1.82668 8.79495 2.42668 9.73495C2.95335 10.5616 3.56668 11.2749 4.23335 11.8483" stroke="#171717" stroke-linecap="round" stroke-linejoin="round"/>
<path d="M6.11328 13.0185C6.87328 13.3385 7.67995 13.5118 8.49995 13.5118C10.8533 13.5118 13.0466 12.1252 14.5733 9.72516C15.1733 8.78516 15.1733 7.20516 14.5733 6.26516C14.3533 5.91849 14.1133 5.59182 13.8666 5.28516" stroke="#171717" stroke-linecap="round" stroke-linejoin="round"/>
<path d="M10.84 8.46484C10.6666 9.40484 9.89996 10.1715 8.95996 10.3448" stroke="#171717" stroke-linecap="round" stroke-linejoin="round"/>
<path d="M6.81337 9.6875L1.83337 14.6675" stroke="#171717" stroke-linecap="round" stroke-linejoin="round"/>
<path d="M15.1666 1.33203L10.1866 6.31203" stroke="#171717" stroke-linecap="round" stroke-linejoin="round"/>
</g>
<defs>
<clipPath id="clip0_6_11827">
<rect width="16" height="16" fill="white" transform="translate(0.5)"/>
</clipPath>
</defs>
</svg>
