<svg width="20" height="20" viewBox="0 0 20 20" fill="none" xmlns="http://www.w3.org/2000/svg">
<path d="M16.9158 15.3899C16.9158 16.1571 16.6919 16.822 16.2442 17.3846C15.7964 17.9472 15.2591 18.2285 14.6322 18.2285H5.49775C4.87088 18.2285 4.33356 17.9472 3.88579 17.3846C3.43803 16.822 3.21414 16.1571 3.21414 15.3899C3.21414 14.7761 3.24613 14.2007 3.31009 13.6637C3.37406 13.1266 3.4828 12.5832 3.63632 12.0334C3.78984 11.4835 4.00093 11.0168 4.26959 10.6332C4.53825 10.2496 4.87088 9.92997 5.26747 9.67424C5.66407 9.4185 6.15021 9.29703 6.72591 9.30982C7.65983 10.2305 8.77285 10.6908 10.065 10.6908C11.3571 10.6908 12.4765 10.2305 13.4232 9.30982C13.9605 9.30982 14.4403 9.43129 14.8625 9.67424C15.2847 9.91718 15.6173 10.2368 15.8604 10.6332C16.1034 11.0296 16.3145 11.4963 16.4936 12.0334C16.6727 12.5704 16.7879 13.1138 16.839 13.6637C16.8902 14.2135 16.9158 14.7889 16.9158 15.3899ZM14.1716 5.89578C14.1716 7.021 13.775 7.9864 12.9819 8.79196C12.1887 9.59752 11.2164 10.0003 10.065 10.0003C8.91357 10.0003 7.94768 9.59752 7.16728 8.79196C6.38689 7.9864 5.9839 7.021 5.95831 5.89578C5.93273 4.77055 6.33572 3.79876 7.16728 2.98042C7.99885 2.16207 8.96475 1.75929 10.065 1.77208C11.1652 1.78486 12.1375 2.18764 12.9819 2.98042C13.8262 3.77319 14.2228 4.74498 14.1716 5.89578Z" fill="#666666"/>
</svg>
