<svg width="12" height="12" viewBox="0 0 12 12" fill="none" xmlns="http://www.w3.org/2000/svg">
<path d="M11.1967 3.79199C11.1967 3.96799 11.1327 4.11999 11.0048 4.24799L5.24963 10.008C5.12174 10.128 4.96987 10.188 4.79401 10.188C4.61816 10.188 4.46629 10.128 4.33839 10.008L1.00517 6.67199C0.885267 6.54399 0.825317 6.39199 0.825317 6.21599C0.825317 6.03999 0.885267 5.88799 1.00517 5.75999L1.91641 4.84799C2.0443 4.71999 2.19618 4.65599 2.37203 4.65599C2.54788 4.65599 2.69976 4.71999 2.82765 4.84799L4.79401 6.82799L9.18236 2.42399C9.31025 2.29599 9.46213 2.23199 9.63798 2.23199C9.81383 2.23199 9.96571 2.29599 10.0936 2.42399L11.0048 3.33599C11.1327 3.45599 11.1967 3.60799 11.1967 3.79199Z" fill="#3CAFB1"/>
</svg>
