<svg width="16" height="16" viewBox="0 0 16 16" fill="none" xmlns="http://www.w3.org/2000/svg">
<path d="M12.6667 7.33268H8.66669V3.33268C8.66669 3.15587 8.59645 2.9863 8.47142 2.86128C8.3464 2.73625 8.17683 2.66602 8.00002 2.66602C7.82321 2.66602 7.65364 2.73625 7.52862 2.86128C7.40359 2.9863 7.33335 3.15587 7.33335 3.33268V7.33268H3.33335C3.15654 7.33268 2.98697 7.40292 2.86195 7.52794C2.73693 7.65297 2.66669 7.82254 2.66669 7.99935C2.66669 8.17616 2.73693 8.34573 2.86195 8.47075C2.98697 8.59578 3.15654 8.66602 3.33335 8.66602H7.33335V12.666C7.33335 12.8428 7.40359 13.0124 7.52862 13.1374C7.65364 13.2624 7.82321 13.3327 8.00002 13.3327C8.17683 13.3327 8.3464 13.2624 8.47142 13.1374C8.59645 13.0124 8.66669 12.8428 8.66669 12.666V8.66602H12.6667C12.8435 8.66602 13.0131 8.59578 13.1381 8.47075C13.2631 8.34573 13.3334 8.17616 13.3334 7.99935C13.3334 7.82254 13.2631 7.65297 13.1381 7.52794C13.0131 7.40292 12.8435 7.33268 12.6667 7.33268Z" fill="black"/>
</svg>
