<svg width="17" height="17" viewBox="0 0 17 17" fill="none" xmlns="http://www.w3.org/2000/svg">
<path d="M13.0232 7.19026L9.09197 10.9535C8.89037 11.1551 8.66637 11.2559 8.41997 11.2559C8.17357 11.2559 7.94957 11.1551 7.74797 10.9535L3.81677 7.19026C3.63757 7.01106 3.54797 6.78146 3.54797 6.50146C3.54797 6.22146 3.63757 5.99186 3.81677 5.81266C4.24237 5.38706 4.67917 5.38706 5.12717 5.81266L8.41997 8.97106L11.7128 5.81266C12.1608 5.38706 12.5976 5.38706 13.0232 5.81266C13.2024 5.99186 13.292 6.22146 13.292 6.50146C13.292 6.78146 13.2024 7.01106 13.0232 7.19026Z" fill="black"/>
</svg>
