<svg width="18" height="17" viewBox="0 0 18 17" fill="none" xmlns="http://www.w3.org/2000/svg">
<path d="M13.2732 7.19026L9.34197 10.9535C9.14037 11.1551 8.91637 11.2559 8.66997 11.2559C8.42357 11.2559 8.19957 11.1551 7.99797 10.9535L4.06677 7.19026C3.88757 7.01106 3.79797 6.78146 3.79797 6.50146C3.79797 6.22146 3.88757 5.99186 4.06677 5.81266C4.49237 5.38706 4.92917 5.38706 5.37717 5.81266L8.66997 8.97106L11.9628 5.81266C12.4108 5.38706 12.8476 5.38706 13.2732 5.81266C13.4524 5.99186 13.542 6.22146 13.542 6.50146C13.542 6.78146 13.4524 7.01106 13.2732 7.19026Z" fill="black"/>
</svg>
