<svg width="18" height="17" viewBox="0 0 18 17" fill="none" xmlns="http://www.w3.org/2000/svg">
<path d="M13.4331 7.19026L9.50195 10.9535C9.30035 11.1551 9.07635 11.2559 8.82995 11.2559C8.58355 11.2559 8.35955 11.1551 8.15795 10.9535L4.22675 7.19026C4.04755 7.01106 3.95795 6.78146 3.95795 6.50146C3.95795 6.22146 4.04755 5.99186 4.22675 5.81266C4.65235 5.38706 5.08915 5.38706 5.53715 5.81266L8.82995 8.97106L12.1227 5.81266C12.5707 5.38706 13.0075 5.38706 13.4331 5.81266C13.6123 5.99186 13.7019 6.22146 13.7019 6.50146C13.7019 6.78146 13.6123 7.01106 13.4331 7.19026Z" fill="black"/>
</svg>
