<svg width="20" height="20" viewBox="0 0 20 20" fill="none" xmlns="http://www.w3.org/2000/svg">
<path d="M16.9158 15.3896C16.9158 16.1568 16.6919 16.8217 16.2442 17.3844C15.7964 17.947 15.2591 18.2283 14.6322 18.2283H5.49775C4.87088 18.2283 4.33356 17.947 3.88579 17.3844C3.43803 16.8217 3.21414 16.1568 3.21414 15.3896C3.21414 14.7759 3.24613 14.2005 3.31009 13.6634C3.37406 13.1264 3.4828 12.583 3.63632 12.0331C3.78984 11.4833 4.00093 11.0166 4.26959 10.633C4.53825 10.2494 4.87088 9.92973 5.26747 9.67399C5.66407 9.41826 6.15021 9.29679 6.72591 9.30957C7.65983 10.2302 8.77285 10.6905 10.065 10.6905C11.3571 10.6905 12.4765 10.2302 13.4232 9.30957C13.9605 9.30957 14.4403 9.43105 14.8625 9.67399C15.2847 9.91694 15.6173 10.2366 15.8604 10.633C16.1034 11.0294 16.3145 11.4961 16.4936 12.0331C16.6727 12.5702 16.7879 13.1136 16.839 13.6634C16.8902 14.2133 16.9158 14.7887 16.9158 15.3896ZM14.1716 5.89553C14.1716 7.02076 13.775 7.98615 12.9819 8.79171C12.1887 9.59727 11.2164 10.0001 10.065 10.0001C8.91357 10.0001 7.94768 9.59727 7.16728 8.79171C6.38689 7.98615 5.9839 7.02076 5.95831 5.89553C5.93273 4.77031 6.33572 3.79852 7.16728 2.98017C7.99885 2.16183 8.96475 1.75905 10.065 1.77183C11.1652 1.78462 12.1375 2.1874 12.9819 2.98017C13.8262 3.77295 14.2228 4.74473 14.1716 5.89553Z" fill="#666666"/>
</svg>
