<svg width="20" height="20" viewBox="0 0 20 20" fill="none" xmlns="http://www.w3.org/2000/svg">
<path d="M16.9158 15.3895C16.9158 16.1567 16.6919 16.8216 16.2442 17.3842C15.7964 17.9468 15.2591 18.2281 14.6322 18.2281H5.49775C4.87088 18.2281 4.33356 17.9468 3.88579 17.3842C3.43803 16.8216 3.21414 16.1567 3.21414 15.3895C3.21414 14.7757 3.24613 14.2003 3.31009 13.6633C3.37406 13.1263 3.4828 12.5828 3.63632 12.033C3.78984 11.4832 4.00093 11.0165 4.26959 10.6329C4.53825 10.2493 4.87088 9.9296 5.26747 9.67387C5.66407 9.41814 6.15021 9.29666 6.72591 9.30945C7.65983 10.2301 8.77285 10.6904 10.065 10.6904C11.3571 10.6904 12.4765 10.2301 13.4232 9.30945C13.9605 9.30945 14.4403 9.43092 14.8625 9.67387C15.2847 9.91682 15.6173 10.2365 15.8604 10.6329C16.1034 11.0293 16.3145 11.496 16.4936 12.033C16.6727 12.5701 16.7879 13.1135 16.839 13.6633C16.8902 14.2131 16.9158 14.7885 16.9158 15.3895ZM14.1716 5.89541C14.1716 7.02064 13.775 7.98603 12.9819 8.79159C12.1887 9.59715 11.2164 9.99993 10.065 9.99993C8.91357 9.99993 7.94768 9.59715 7.16728 8.79159C6.38689 7.98603 5.9839 7.02064 5.95831 5.89541C5.93273 4.77018 6.33572 3.7984 7.16728 2.98005C7.99885 2.16171 8.96475 1.75892 10.065 1.77171C11.1652 1.7845 12.1375 2.18728 12.9819 2.98005C13.8262 3.77282 14.2228 4.74461 14.1716 5.89541Z" fill="#666666"/>
</svg>
