<svg width="18" height="17" viewBox="0 0 18 17" fill="none" xmlns="http://www.w3.org/2000/svg">
<path d="M13.2732 7.1905L9.34197 10.9537C9.14037 11.1553 8.91637 11.2561 8.66997 11.2561C8.42357 11.2561 8.19957 11.1553 7.99797 10.9537L4.06677 7.1905C3.88757 7.0113 3.79797 6.7817 3.79797 6.5017C3.79797 6.2217 3.88757 5.9921 4.06677 5.8129C4.49237 5.3873 4.92917 5.3873 5.37717 5.8129L8.66997 8.9713L11.9628 5.8129C12.4108 5.3873 12.8476 5.3873 13.2732 5.8129C13.4524 5.9921 13.542 6.2217 13.542 6.5017C13.542 6.7817 13.4524 7.0113 13.2732 7.1905Z" fill="black"/>
</svg>
