<svg width="20" height="20" viewBox="0 0 20 20" fill="none" xmlns="http://www.w3.org/2000/svg">
<path d="M16.9158 15.3894C16.9158 16.1566 16.6919 16.8215 16.2442 17.3841C15.7964 17.9467 15.2591 18.228 14.6322 18.228H5.49775C4.87088 18.228 4.33356 17.9467 3.88579 17.3841C3.43803 16.8215 3.21414 16.1566 3.21414 15.3894C3.21414 14.7756 3.24613 14.2002 3.31009 13.6632C3.37406 13.1261 3.4828 12.5827 3.63632 12.0329C3.78984 11.4831 4.00093 11.0163 4.26959 10.6327C4.53825 10.2491 4.87088 9.92948 5.26747 9.67375C5.66407 9.41801 6.15021 9.29654 6.72591 9.30933C7.65983 10.23 8.77285 10.6903 10.065 10.6903C11.3571 10.6903 12.4765 10.23 13.4232 9.30933C13.9605 9.30933 14.4403 9.4308 14.8625 9.67375C15.2847 9.91669 15.6173 10.2364 15.8604 10.6327C16.1034 11.0291 16.3145 11.4958 16.4936 12.0329C16.6727 12.5699 16.7879 13.1134 16.839 13.6632C16.8902 14.213 16.9158 14.7884 16.9158 15.3894ZM14.1716 5.89529C14.1716 7.02052 13.775 7.98591 12.9819 8.79147C12.1887 9.59703 11.2164 9.99981 10.065 9.99981C8.91357 9.99981 7.94768 9.59703 7.16728 8.79147C6.38689 7.98591 5.9839 7.02052 5.95831 5.89529C5.93273 4.77006 6.33572 3.79828 7.16728 2.97993C7.99885 2.16158 8.96475 1.7588 10.065 1.77159C11.1652 1.78438 12.1375 2.18716 12.9819 2.97993C13.8262 3.7727 14.2228 4.74449 14.1716 5.89529Z" fill="#666666"/>
</svg>
