<svg width="54" height="32" viewBox="0 0 54 32" fill="none" xmlns="http://www.w3.org/2000/svg">
<rect x="1.31006" y="0.5" width="52.19" height="31" stroke="#E5E5E5"/>
<path d="M25.3517 21.4466C25.3517 21.8176 25.2174 22.1375 24.9487 22.4061C24.6801 22.6748 24.3602 22.8155 23.9892 22.8283C23.6182 22.8411 23.2984 22.7004 23.0297 22.4061C22.7611 22.1119 22.6204 21.792 22.6076 21.4466C22.5948 21.1012 22.7355 20.7814 23.0297 20.4871C23.324 20.1929 23.6438 20.0585 23.9892 20.0841C24.3347 20.1097 24.6545 20.244 24.9487 20.4871C25.243 20.7302 25.3773 21.05 25.3517 21.4466ZM34.9467 21.4466C34.9467 21.8176 34.8124 22.1375 34.5437 22.4061C34.2751 22.6748 33.9552 22.8155 33.5842 22.8283C33.2132 22.8411 32.8934 22.7004 32.6247 22.4061C32.3561 22.1119 32.2154 21.792 32.2026 21.4466C32.1898 21.1012 32.3305 20.7814 32.6247 20.4871C32.919 20.1929 33.2388 20.0585 33.5842 20.0841C33.9297 20.1097 34.2495 20.244 34.5437 20.4871C34.838 20.7302 34.9723 21.05 34.9467 21.4466ZM36.3284 9.79829V15.2866C36.3284 15.4529 36.2644 15.6001 36.1365 15.728C36.0086 15.8559 35.8678 15.9327 35.7143 15.9583L24.5266 17.2632C24.6161 17.6982 24.6609 17.9604 24.6609 18.05C24.6609 18.1395 24.5777 18.357 24.4114 18.7025H34.2559C34.4478 18.7025 34.6141 18.7728 34.7548 18.9135C34.8956 19.0543 34.9595 19.2142 34.9467 19.3933C34.9339 19.5724 34.87 19.7323 34.7548 19.873C34.6397 20.0138 34.4734 20.0841 34.2559 20.0841H23.2984C23.1193 20.0841 22.9594 20.0138 22.8186 19.873C22.6779 19.7323 22.6076 19.5724 22.6076 19.3933C22.6076 19.3165 22.6395 19.2014 22.7035 19.0479C22.7675 18.8944 22.825 18.7664 22.8762 18.6641C22.9274 18.5617 23.0042 18.421 23.1065 18.2419C23.2088 18.0628 23.26 17.954 23.26 17.9157L21.3794 9.10745H19.1917C18.9998 9.10745 18.8399 9.04348 18.712 8.91555C18.5841 8.78762 18.5137 8.6277 18.5009 8.4358C18.4881 8.2439 18.5585 8.07759 18.712 7.93686C18.8655 7.79613 19.0254 7.73217 19.1917 7.74496H21.9359C22.051 7.74496 22.1534 7.76415 22.2429 7.80253C22.3325 7.84091 22.3965 7.89848 22.4348 7.97524C22.4732 8.052 22.5244 8.14155 22.5884 8.2439C22.6523 8.34625 22.6779 8.4358 22.6651 8.51256C22.6523 8.58932 22.6715 8.69806 22.7227 8.83879C22.7739 8.97952 22.7931 9.06907 22.7803 9.10745H35.6376C35.8167 9.10745 35.9766 9.17781 36.1173 9.31854C36.258 9.45927 36.3284 9.61918 36.3284 9.79829Z" fill="#666666"/>
</svg>
